<svg width="182" height="52" viewBox="0 0 182 52" fill="none" xmlns="http://www.w3.org/2000/svg">
<g clip-path="url(#clip0_38_999)">
<path d="M25.9999 4.16016L44.9799 15.0802V36.9202L25.9999 47.8402L7.0199 36.9202V15.0802L25.9999 4.16016Z" stroke="#14213D" stroke-width="1.81286" stroke-linejoin="round"/>
<path d="M16.1199 20.28L21.0599 23.14V28.86L16.1199 31.72L11.1799 28.86V23.14L16.1199 20.28Z" fill="#2D6CDF"/>
<path d="M35.8799 20.28L40.8199 23.14V28.86L35.8799 31.72L30.9399 28.86V23.14L35.8799 20.28Z" fill="#2D6CDF"/>
<path d="M21.0599 26.0001H23.1399L24.5699 22.1001L25.9999 29.9001L27.5599 24.1801L28.8599 26.0001H30.9399" stroke="#00C2A8" stroke-width="1.61143" stroke-linecap="round" stroke-linejoin="round"/>
<path d="M162.28 44.3239V11.512H181.741V17.1369H167.988V24.9649H180.53V30.5898H167.988V38.699H182V44.3239H162.28Z" fill="#2D6CDF"/>
<path d="M146.563 44.9799C144.227 44.9799 142.166 44.5268 140.378 43.6206C138.591 42.7143 137.193 41.4175 136.184 39.73C135.175 38.0425 134.67 36.0113 134.67 33.6363V32.3239H140.292V33.6363C140.292 35.6051 140.854 37.0894 141.979 38.0894C143.103 39.0581 144.631 39.5425 146.563 39.5425C148.523 39.5425 149.979 39.1206 150.93 38.2769C151.911 37.4332 152.401 36.355 152.401 35.0426C152.401 34.1363 152.156 33.402 151.666 32.8395C151.204 32.277 150.512 31.8239 149.59 31.4801C148.696 31.1051 147.601 30.7614 146.303 30.4489L145.308 30.2145C143.233 29.7145 141.445 29.0895 139.946 28.3396C138.476 27.5583 137.337 26.5427 136.53 25.2927C135.751 24.0428 135.362 22.4178 135.362 20.4178C135.362 18.4178 135.794 16.7147 136.659 15.3085C137.553 13.871 138.793 12.7773 140.378 12.0273C141.993 11.2461 143.881 10.8555 146.044 10.8555C148.206 10.8555 150.123 11.2617 151.795 12.0742C153.496 12.8554 154.823 14.0429 155.774 15.6366C156.754 17.1991 157.244 19.1678 157.244 21.5428V22.949H151.622V21.5428C151.622 20.2928 151.392 19.2928 150.93 18.5428C150.498 17.7616 149.864 17.1991 149.028 16.8554C148.192 16.4804 147.197 16.2929 146.044 16.2929C144.314 16.2929 143.031 16.6522 142.195 17.371C141.388 18.0585 140.984 19.0116 140.984 20.2303C140.984 21.0428 141.171 21.7303 141.546 22.2928C141.95 22.8553 142.541 23.324 143.319 23.699C144.098 24.074 145.092 24.4021 146.303 24.6834L147.298 24.9177C149.46 25.4177 151.334 26.0583 152.92 26.8396C154.534 27.6208 155.788 28.6521 156.682 29.9333C157.576 31.2145 158.023 32.8551 158.023 34.8551C158.023 36.855 157.547 38.6206 156.596 40.1519C155.673 41.6518 154.347 42.8393 152.617 43.7143C150.916 44.558 148.898 44.9799 146.563 44.9799Z" fill="#14213D"/>
<path d="M112.615 44.3239V11.512H118.324V38.699H132.162V44.3239H112.615Z" fill="#14213D"/>
<path d="M95.2357 44.9802C92.7563 44.9802 90.6228 44.4958 88.8353 43.5271C87.0767 42.5271 85.7216 41.1208 84.7702 39.3084C83.8476 37.4647 83.3864 35.2928 83.3864 32.7929V11.512H89.0948V32.9804C89.0948 34.9803 89.6137 36.5584 90.6516 37.7147C91.7184 38.8709 93.2464 39.449 95.2357 39.449C97.225 39.449 98.7386 38.8709 99.7765 37.7147C100.843 36.5584 101.377 34.9803 101.377 32.9804V11.512H107.085V32.7929C107.085 35.2928 106.609 37.4647 105.658 39.3084C104.735 41.1208 103.38 42.5271 101.593 43.5271C99.8341 44.4958 97.7151 44.9802 95.2357 44.9802Z" fill="#14213D"/>
<path d="M57.46 44.3239V11.512H69.9147C71.8175 11.512 73.4897 11.9338 74.9312 12.7776C76.4016 13.5901 77.5404 14.7463 78.3476 16.2463C79.1837 17.7462 79.6017 19.5275 79.6017 21.5899V22.2462C79.6017 24.2774 79.1693 26.0586 78.3044 27.5898C77.4683 29.0898 76.3151 30.2617 74.8447 31.1054C73.4032 31.9179 71.7599 32.3241 69.9147 32.3241H63.1684V44.3239H57.46ZM63.1684 26.6992H69.3525C70.7076 26.6992 71.8031 26.293 72.6392 25.4805C73.4753 24.668 73.8933 23.5586 73.8933 22.1524V21.6837C73.8933 20.2774 73.4753 19.1681 72.6392 18.3556C71.8031 17.5431 70.7076 17.1369 69.3525 17.1369H63.1684V26.6992Z" fill="#14213D"/>
</g>
<defs>
<clipPath id="clip0_38_999">
<rect width="182" height="52" fill="white"/>
</clipPath>
</defs>
</svg>
