<svg width="1440" height="900" viewBox="0 0 1440 900" fill="none" xmlns="http://www.w3.org/2000/svg">
<g clip-path="url(#clip0_243_147)">
<rect width="1440" height="900" fill="#F7F9FC"/>
<path opacity="0.7" d="M952 638.3L932 672.9M952 638.3L932 603.6M952 638.3H992M932 672.9H892M932 672.9L952 707.5M892 672.9L872 638.3L892 603.6H932M892 672.9L872 707.5L892 742.2M932 603.6L952 569H992L1012 603.6M1012 603.6L992 638.3M1012 603.6H1052M992 638.3L1012 672.9M1072 638.3L1052 672.9M1072 638.3L1052 603.6M1072 638.3H1112M1052 672.9H1012M1052 672.9L1072 707.5M1012 672.9L992 707.5M1052 603.6L1072 569H1112L1132 603.6M1132 603.6L1112 638.3M1132 603.6H1172M1112 638.3L1132 672.9M1192 638.3L1172 672.9M1192 638.3L1172 603.6M1192 638.3H1232M1172 672.9H1132M1172 672.9L1192 707.5M1132 672.9L1112 707.5M1172 603.6L1192 569H1232L1252 603.6M1252 603.6L1232 638.3M1252 603.6H1292M1232 638.3L1252 672.9M1312 638.3L1292 672.9M1312 638.3L1292 603.6M1312 638.3H1352M1292 672.9H1252M1292 672.9L1312 707.5M1252 672.9L1232 707.5M1292 603.6L1312 569H1352L1372 603.6L1352 638.3M1352 638.3L1372 672.9L1352 707.5M952 707.5L932 742.2M952 707.5H992M932 742.2H892M932 742.2L952 776.8M892 742.2L872 776.8L892 811.5M992 707.5L1012 742.2M1072 707.5L1052 742.2M1072 707.5H1112M1052 742.2H1012M1052 742.2L1072 776.8M1012 742.2L992 776.8M1112 707.5L1132 742.2M1192 707.5L1172 742.2M1192 707.5H1232M1172 742.2H1132M1172 742.2L1192 776.8M1132 742.2L1112 776.8M1232 707.5L1252 742.2M1312 707.5L1292 742.2M1312 707.5H1352M1292 742.2H1252M1292 742.2L1312 776.8M1252 742.2L1232 776.8M1352 707.5L1372 742.2L1352 776.8M952 776.8L932 811.5M952 776.8H992M932 811.5H892M932 811.5L952 846.1M892 811.5L872 846.1L892 880.7M992 776.8L1012 811.5M1072 776.8L1052 811.5M1072 776.8H1112M1052 811.5H1012M1052 811.5L1072 846.1M1012 811.5L992 846.1M1112 776.8L1132 811.5M1192 776.8L1172 811.5M1192 776.8H1232M1172 811.5H1132M1172 811.5L1192 846.1M1132 811.5L1112 846.1M1232 776.8L1252 811.5M1312 776.8L1292 811.5M1312 776.8H1352M1292 811.5H1252M1292 811.5L1312 846.1M1252 811.5L1232 846.1M1352 776.8L1372 811.5L1352 846.1M952 846.1L932 880.7M952 846.1H992M932 880.7H892M932 880.7L952 915.4M892 880.7L872 915.4L892 950M992 846.1L1012 880.7M1072 846.1L1052 880.7M1072 846.1H1112M1052 880.7H1012M1052 880.7L1072 915.4M1012 880.7L992 915.4M1112 846.1L1132 880.7M1192 846.1L1172 880.7M1192 846.1H1232M1172 880.7H1132M1172 880.7L1192 915.4M1132 880.7L1112 915.4M1232 846.1L1252 880.7M1312 846.1L1292 880.7M1312 846.1H1352M1292 880.7H1252M1292 880.7L1312 915.4M1252 880.7L1232 915.4M1352 846.1L1372 880.7L1352 915.4M952 915.4L932 950M952 915.4H992M932 950H892M932 950L952 984.7M892 950L872 984.7L892 1019.3H932L952 984.7M992 915.4L1012 950M1072 915.4L1052 950M1072 915.4H1112M1052 950H1012M1052 950L1072 984.7M1012 950L992 984.7M1112 915.4L1132 950M1192 915.4L1172 950M1192 915.4H1232M1172 950H1132M1172 950L1192 984.7M1132 950L1112 984.7M1232 915.4L1252 950M1312 915.4L1292 950M1312 915.4H1352M1292 950H1252M1292 950L1312 984.7M1252 950L1232 984.7M1352 915.4L1372 950L1352 984.7H1312M952 984.7H992M992 984.7L1012 1019.3H1052L1072 984.7M1072 984.7H1112M1112 984.7L1132 1019.3H1172L1192 984.7M1192 984.7H1232M1232 984.7L1252 1019.3H1292L1312 984.7M1012 326.3L992 360.9M1012 326.3L992 291.6M1012 326.3H1052M992 360.9H952M992 360.9L1012 395.5M952 360.9L932 326.3L952 291.6H992M952 360.9L932 395.5L952 430.2M992 291.6L1012 257H1052L1072 291.6M1072 291.6L1052 326.3M1072 291.6H1112M1052 326.3L1072 360.9M1132 326.3L1112 360.9M1132 326.3L1112 291.6M1132 326.3H1172M1112 360.9H1072M1112 360.9L1132 395.5M1072 360.9L1052 395.5M1112 291.6L1132 257H1172L1192 291.6M1192 291.6L1172 326.3M1192 291.6H1232M1172 326.3L1192 360.9M1252 326.3L1232 360.9M1252 326.3L1232 291.6M1252 326.3H1292M1232 360.9H1192M1232 360.9L1252 395.5M1192 360.9L1172 395.5M1232 291.6L1252 257H1292L1312 291.6M1312 291.6L1292 326.3M1312 291.6H1352M1292 326.3L1312 360.9M1372 326.3L1352 360.9M1372 326.3L1352 291.6M1372 326.3H1412M1352 360.9H1312M1352 360.9L1372 395.5M1312 360.9L1292 395.5M1352 291.6L1372 257H1412L1432 291.6L1412 326.3M1412 326.3L1432 360.9L1412 395.5M1012 395.5L992 430.2M1012 395.5H1052M992 430.2H952M992 430.2L1012 464.8M952 430.2L932 464.8L952 499.5M1052 395.5L1072 430.2M1132 395.5L1112 430.2M1132 395.5H1172M1112 430.2H1072M1112 430.2L1132 464.8M1072 430.2L1052 464.8M1172 395.5L1192 430.2M1252 395.5L1232 430.2M1252 395.5H1292M1232 430.2H1192M1232 430.2L1252 464.8M1192 430.2L1172 464.8M1292 395.5L1312 430.2M1372 395.5L1352 430.2M1372 395.5H1412M1352 430.2H1312M1352 430.2L1372 464.8M1312 430.2L1292 464.8M1412 395.5L1432 430.2L1412 464.8M1012 464.8L992 499.5M1012 464.8L1052 464.8M992 499.5H952M992 499.5L1012 534.1M952 499.5L932 534.1L952 568.7M1052 464.8L1072 499.5M1132 464.8L1112 499.5M1132 464.8L1172 464.8M1112 499.5H1072M1112 499.5L1132 534.1M1072 499.5L1052 534.1M1172 464.8L1192 499.5M1252 464.8L1232 499.5M1252 464.8L1292 464.8M1232 499.5H1192M1232 499.5L1252 534.1M1192 499.5L1172 534.1M1292 464.8L1312 499.5M1372 464.8L1352 499.5M1372 464.8L1412 464.8M1352 499.5H1312M1352 499.5L1372 534.1M1312 499.5L1292 534.1M1412 464.8L1432 499.5L1412 534.1M1012 534.1L992 568.7M1012 534.1L1052 534.1M992 568.7H952M992 568.7L1012 603.4M952 568.7L932 603.4L952 638M1052 534.1L1072 568.7M1132 534.1L1112 568.7M1132 534.1L1172 534.1M1112 568.7H1072M1112 568.7L1132 603.4M1072 568.7L1052 603.4M1172 534.1L1192 568.7M1252 534.1L1232 568.7M1252 534.1L1292 534.1M1232 568.7H1192M1232 568.7L1252 603.4M1192 568.7L1172 603.4M1292 534.1L1312 568.7M1372 534.1L1352 568.7M1372 534.1L1412 534.1M1352 568.7H1312M1352 568.7L1372 603.4M1312 568.7L1292 603.4M1412 534.1L1432 568.7L1412 603.4M1012 603.4L992 638M1012 603.4H1052M992 638H952M992 638L1012 672.7M952 638L932 672.7L952 707.3H992L1012 672.7M1052 603.4L1072 638M1132 603.4L1112 638M1132 603.4H1172M1112 638H1072M1112 638L1132 672.7M1072 638L1052 672.7M1172 603.4L1192 638M1252 603.4L1232 638M1252 603.4H1292M1232 638H1192M1232 638L1252 672.7M1192 638L1172 672.7M1292 603.4L1312 638M1372 603.4L1352 638M1372 603.4H1412M1352 638H1312M1352 638L1372 672.7M1312 638L1292 672.7M1412 603.4L1432 638L1412 672.7H1372M1012 672.7H1052M1052 672.7L1072 707.3H1112L1132 672.7M1132 672.7H1172M1172 672.7L1192 707.3H1232L1252 672.7M1252 672.7H1292M1292 672.7L1312 707.3H1352L1372 672.7" stroke="url(#paint0_linear_243_147)" stroke-width="2.5" stroke-linejoin="round"/>
<path opacity="0.7" d="M-265 270.3L-285 304.9M-265 270.3L-285 235.6M-265 270.3H-225M-285 304.9H-325M-285 304.9L-265 339.5M-325 304.9L-345 270.3L-325 235.6H-285M-325 304.9L-345 339.5L-325 374.2M-285 235.6L-265 201H-225L-205 235.6M-205 235.6L-225 270.3M-205 235.6H-165M-225 270.3L-205 304.9M-145 270.3L-165 304.9M-145 270.3L-165 235.6M-145 270.3H-105M-165 304.9H-205M-165 304.9L-145 339.5M-205 304.9L-225 339.5M-165 235.6L-145 201H-105L-85 235.6M-85 235.6L-105 270.3M-85 235.6H-45M-105 270.3L-85 304.9M-25 270.3L-45 304.9M-25 270.3L-45 235.6M-25 270.3H15M-45 304.9H-85M-45 304.9L-25 339.5M-85 304.9L-105 339.5M-45 235.6L-25 201H15L35 235.6M35 235.6L15 270.3M35 235.6H75M15 270.3L35 304.9M95 270.3L75 304.9M95 270.3L75 235.6M95 270.3H135M75 304.9H35M75 304.9L95 339.5M35 304.9L15 339.5M75 235.6L95 201H135L155 235.6L135 270.3M135 270.3L155 304.9L135 339.5M-265 339.5L-285 374.2M-265 339.5H-225M-285 374.2H-325M-285 374.2L-265 408.8M-325 374.2L-345 408.8L-325 443.5M-225 339.5L-205 374.2M-145 339.5L-165 374.2M-145 339.5H-105M-165 374.2H-205M-165 374.2L-145 408.8M-205 374.2L-225 408.8M-105 339.5L-85 374.2M-25 339.5L-45 374.2M-25 339.5H15M-45 374.2H-85M-45 374.2L-25 408.8M-85 374.2L-105 408.8M15 339.5L35 374.2M95 339.5L75 374.2M95 339.5H135M75 374.2H35M75 374.2L95 408.8M35 374.2L15 408.8M135 339.5L155 374.2L135 408.8M-265 408.8L-285 443.5M-265 408.8H-225M-285 443.5H-325M-285 443.5L-265 478.1M-325 443.5L-345 478.1L-325 512.7M-225 408.8L-205 443.5M-145 408.8L-165 443.5M-145 408.8H-105M-165 443.5H-205M-165 443.5L-145 478.1M-205 443.5L-225 478.1M-105 408.8L-85 443.5M-25 408.8L-45 443.5M-25 408.8H15M-45 443.5H-85M-45 443.5L-25 478.1M-85 443.5L-105 478.1M15 408.8L35 443.5M95 408.8L75 443.5M95 408.8H135M75 443.5H35M75 443.5L95 478.1M35 443.5L15 478.1M135 408.8L155 443.5L135 478.1M-265 478.1L-285 512.7M-265 478.1H-225M-285 512.7H-325M-285 512.7L-265 547.4M-325 512.7L-345 547.4L-325 582M-225 478.1L-205 512.7M-145 478.1L-165 512.7M-145 478.1H-105M-165 512.7H-205M-165 512.7L-145 547.4M-205 512.7L-225 547.4M-105 478.1L-85 512.7M-25 478.1L-45 512.7M-25 478.1H15M-45 512.7H-85M-45 512.7L-25 547.4M-85 512.7L-105 547.4M15 478.1L35 512.7M95 478.1L75 512.7M95 478.1H135M75 512.7H35M75 512.7L95 547.4M35 512.7L15 547.4M135 478.1L155 512.7L135 547.4M-265 547.4L-285 582M-265 547.4H-225M-285 582H-325M-285 582L-265 616.7M-325 582L-345 616.7L-325 651.3H-285L-265 616.7M-225 547.4L-205 582M-145 547.4L-165 582M-145 547.4H-105M-165 582H-205M-165 582L-145 616.7M-205 582L-225 616.7M-105 547.4L-85 582M-25 547.4L-45 582M-25 547.4H15M-45 582H-85M-45 582L-25 616.7M-85 582L-105 616.7M15 547.4L35 582M95 547.4L75 582M95 547.4H135M75 582H35M75 582L95 616.7M35 582L15 616.7M135 547.4L155 582L135 616.7H95M-265 616.7H-225M-225 616.7L-205 651.3H-165L-145 616.7M-145 616.7H-105M-105 616.7L-85 651.3H-45L-25 616.7M-25 616.7H15M15 616.7L35 651.3H75L95 616.7M-205 -41.7L-225 -7.1M-205 -41.7L-225 -76.4M-205 -41.7H-165M-225 -7.1H-265M-225 -7.1L-205 27.5M-265 -7.1L-285 -41.7L-265 -76.4H-225M-265 -7.1L-285 27.5L-265 62.2M-225 -76.4L-205 -111H-165L-145 -76.4M-145 -76.4L-165 -41.7M-145 -76.4H-105M-165 -41.7L-145 -7.1M-85 -41.7L-105 -7.1M-85 -41.7L-105 -76.4M-85 -41.7H-45M-105 -7.1H-145M-105 -7.1L-85 27.5M-145 -7.1L-165 27.5M-105 -76.4L-85 -111H-45L-25 -76.4M-25 -76.4L-45 -41.7M-25 -76.4H15M-45 -41.7L-25 -7.1M35 -41.7L15 -7.1M35 -41.7L15 -76.4M35 -41.7H75M15 -7.1H-25M15 -7.1L35 27.5M-25 -7.1L-45 27.5M15 -76.4L35 -111H75L95 -76.4M95 -76.4L75 -41.7M95 -76.4H135M75 -41.7L95 -7.1M155 -41.7L135 -7.1M155 -41.7L135 -76.4M155 -41.7H195M135 -7.1H95M135 -7.1L155 27.5M95 -7.1L75 27.5M135 -76.4L155 -111H195L215 -76.4L195 -41.7M195 -41.7L215 -7.1L195 27.5M-205 27.5L-225 62.2M-205 27.5H-165M-225 62.2H-265M-225 62.2L-205 96.8M-265 62.2L-285 96.8L-265 131.5M-165 27.5L-145 62.2M-85 27.5L-105 62.2M-85 27.5H-45M-105 62.2H-145M-105 62.2L-85 96.8M-145 62.2L-165 96.8M-45 27.5L-25 62.2M35 27.5L15 62.2M35 27.5H75M15 62.2H-25M15 62.2L35 96.8M-25 62.2L-45 96.8M75 27.5L95 62.2M155 27.5L135 62.2M155 27.5H195M135 62.2H95M135 62.2L155 96.8M95 62.2L75 96.8M195 27.5L215 62.2L195 96.8M-205 96.8L-225 131.5M-205 96.8L-165 96.8M-225 131.5H-265M-225 131.5L-205 166.1M-265 131.5L-285 166.1L-265 200.7M-165 96.8L-145 131.5M-85 96.8L-105 131.5M-85 96.8L-45 96.8M-105 131.5H-145M-105 131.5L-85 166.1M-145 131.5L-165 166.1M-45 96.8L-25 131.5M35 96.8L15 131.5M35 96.8L75 96.8M15 131.5H-25M15 131.5L35 166.1M-25 131.5L-45 166.1M75 96.8L95 131.5M155 96.8L135 131.5M155 96.8L195 96.8M135 131.5H95M135 131.5L155 166.1M95 131.5L75 166.1M195 96.8L215 131.5L195 166.1M-205 166.1L-225 200.7M-205 166.1L-165 166.1M-225 200.7H-265M-225 200.7L-205 235.4M-265 200.7L-285 235.4L-265 270M-165 166.1L-145 200.7M-85 166.1L-105 200.7M-85 166.1L-45 166.1M-105 200.7H-145M-105 200.7L-85 235.4M-145 200.7L-165 235.4M-45 166.1L-25 200.7M35 166.1L15 200.7M35 166.1L75 166.1M15 200.7H-25M15 200.7L35 235.4M-25 200.7L-45 235.4M75 166.1L95 200.7M155 166.1L135 200.7M155 166.1L195 166.1M135 200.7H95M135 200.7L155 235.4M95 200.7L75 235.4M195 166.1L215 200.7L195 235.4M-205 235.4L-225 270M-205 235.4H-165M-225 270H-265M-225 270L-205 304.7M-265 270L-285 304.7L-265 339.3H-225L-205 304.7M-165 235.4L-145 270M-85 235.4L-105 270M-85 235.4H-45M-105 270H-145M-105 270L-85 304.7M-145 270L-165 304.7M-45 235.4L-25 270M35 235.4L15 270M35 235.4H75M15 270H-25M15 270L35 304.7M-25 270L-45 304.7M75 235.4L95 270M155 235.4L135 270M155 235.4H195M135 270H95M135 270L155 304.7M95 270L75 304.7M195 235.4L215 270L195 304.7H155M-205 304.7H-165M-165 304.7L-145 339.3H-105L-85 304.7M-85 304.7H-45M-45 304.7L-25 339.3H15L35 304.7M35 304.7H75M75 304.7L95 339.3H135L155 304.7" stroke="url(#paint1_linear_243_147)" stroke-opacity="0.27" stroke-width="2.5" stroke-linejoin="round"/>
<g filter="url(#filter0_f_243_147)">
<circle cx="948" cy="397" r="338" fill="#F7F9FC"/>
</g>
<rect x="1105.05" y="619" width="560" height="560" rx="28" transform="rotate(18 1105.05 619)" fill="url(#paint2_linear_243_147)"/>
<g filter="url(#filter1_d_243_147)">
<rect x="1105.05" y="699" width="320" height="320" rx="28" transform="rotate(-12 1105.05 699)" fill="white"/>
</g>
<g clip-path="url(#clip1_243_147)">
<path d="M1354.1 807.644L1326.61 859.999L1267.53 862.371L1235.93 812.385L1263.42 760.03L1322.51 757.658L1354.1 807.644Z" stroke="#14213D" stroke-width="1.5"/>
<circle cx="1295.02" cy="810.015" r="21.6" transform="rotate(27.7019 1295.02 810.015)" fill="#00C2A8"/>
</g>
</g>
<defs>
<filter id="filter0_f_243_147" x="512.1" y="-38.9" width="871.8" height="871.8" filterUnits="userSpaceOnUse" color-interpolation-filters="sRGB">
<feFlood flood-opacity="0" result="BackgroundImageFix"/>
<feBlend mode="normal" in="SourceGraphic" in2="BackgroundImageFix" result="shape"/>
<feGaussianBlur stdDeviation="48.95" result="effect1_foregroundBlur_243_147"/>
</filter>
<filter id="filter1_d_243_147" x="1073.05" y="612.468" width="443.539" height="443.539" filterUnits="userSpaceOnUse" color-interpolation-filters="sRGB">
<feFlood flood-opacity="0" result="BackgroundImageFix"/>
<feColorMatrix in="SourceAlpha" type="matrix" values="0 0 0 0 0 0 0 0 0 0 0 0 0 0 0 0 0 0 127 0" result="hardAlpha"/>
<feOffset dy="12"/>
<feGaussianBlur stdDeviation="16"/>
<feColorMatrix type="matrix" values="0 0 0 0 0.078 0 0 0 0 0.129 0 0 0 0 0.239 0 0 0 0.08 0"/>
<feBlend mode="normal" in2="BackgroundImageFix" result="effect1_dropShadow_243_147"/>
<feBlend mode="normal" in="SourceGraphic" in2="effect1_dropShadow_243_147" result="shape"/>
</filter>
<linearGradient id="paint0_linear_243_147" x1="1152" y1="638" x2="1152" y2="1019.3" gradientUnits="userSpaceOnUse">
<stop stop-color="#00C2A8" stop-opacity="0"/>
<stop offset="1" stop-color="#3558A3"/>
</linearGradient>
<linearGradient id="paint1_linear_243_147" x1="-65" y1="270" x2="-65" y2="651.3" gradientUnits="userSpaceOnUse">
<stop stop-color="#00C2A8" stop-opacity="0"/>
<stop offset="1" stop-color="#3558A3"/>
</linearGradient>
<linearGradient id="paint2_linear_243_147" x1="1185.05" y1="1099" x2="1585.05" y2="699" gradientUnits="userSpaceOnUse">
<stop stop-color="#EAF1FC"/>
<stop offset="1" stop-color="#E1F8F3"/>
</linearGradient>
<clipPath id="clip0_243_147">
<rect width="1440" height="900" fill="white"/>
</clipPath>
<clipPath id="clip1_243_147">
<rect width="120" height="120" fill="white" transform="translate(1269.78 729) rotate(27.7019)"/>
</clipPath>
</defs>
</svg>
