<svg width="700" height="200" viewBox="0 0 700 200" fill="none" xmlns="http://www.w3.org/2000/svg">
<path d="M100 16L173 58V142L100 184L27 142V58L100 16Z" stroke="white" stroke-width="9" stroke-linejoin="round"/>
<path d="M62 78L81 89V111L62 122L43 111V89L62 78Z" fill="#2D6CDF"/>
<path d="M138 78L157 89V111L138 122L119 111V89L138 78Z" fill="#2D6CDF"/>
<path d="M81 100H89L94.5 85L100 115L106 93L111 100H119" stroke="#00C2A8" stroke-width="8" stroke-linecap="round" stroke-linejoin="round"/>
<path d="M244.712 136V43.6H282.728C288.536 43.6 293.64 44.788 298.04 47.164C302.528 49.452 306.004 52.708 308.468 56.932C311.02 61.156 312.296 66.172 312.296 71.98V73.828C312.296 79.548 310.976 84.564 308.336 88.876C305.784 93.1 302.264 96.4 297.776 98.776C293.376 101.064 288.36 102.208 282.728 102.208H262.136V136H244.712ZM262.136 86.368H281.012C285.148 86.368 288.492 85.224 291.044 82.936C293.596 80.648 294.872 77.524 294.872 73.564V72.244C294.872 68.284 293.596 65.16 291.044 62.872C288.492 60.584 285.148 59.44 281.012 59.44H262.136V86.368ZM360.016 137.848C352.448 137.848 345.936 136.484 340.48 133.756C335.112 130.94 330.976 126.98 328.072 121.876C325.256 116.684 323.848 110.568 323.848 103.528V43.6H341.272V104.056C341.272 109.688 342.856 114.132 346.024 117.388C349.28 120.644 353.944 122.272 360.016 122.272C366.088 122.272 370.708 120.644 373.876 117.388C377.132 114.132 378.76 109.688 378.76 104.056V43.6H396.184V103.528C396.184 110.568 394.732 116.684 391.828 121.876C389.012 126.98 384.876 130.94 379.42 133.756C374.052 136.484 367.584 137.848 360.016 137.848ZM413.064 136V43.6H430.488V120.16H472.728V136H413.064ZM516.683 137.848C509.555 137.848 503.263 136.572 497.807 134.02C492.351 131.468 488.083 127.816 485.003 123.064C481.923 118.312 480.383 112.592 480.383 105.904V102.208H497.543V105.904C497.543 111.448 499.259 115.628 502.691 118.444C506.123 121.172 510.787 122.536 516.683 122.536C522.667 122.536 527.111 121.348 530.015 118.972C533.007 116.596 534.503 113.56 534.503 109.864C534.503 107.312 533.755 105.244 532.259 103.66C530.851 102.076 528.739 100.8 525.923 99.832C523.195 98.776 519.851 97.808 515.891 96.928L512.855 96.268C506.519 94.86 501.063 93.1 496.487 90.988C491.999 88.788 488.523 85.928 486.059 82.408C483.683 78.888 482.495 74.312 482.495 68.68C482.495 63.048 483.815 58.252 486.455 54.292C489.183 50.244 492.967 47.164 497.807 45.052C502.735 42.852 508.499 41.752 515.099 41.752C521.699 41.752 527.551 42.896 532.655 45.184C537.847 47.384 541.895 50.728 544.799 55.216C547.791 59.616 549.287 65.16 549.287 71.848V75.808H532.127V71.848C532.127 68.328 531.423 65.512 530.015 63.4C528.695 61.2 526.759 59.616 524.207 58.648C521.655 57.592 518.619 57.064 515.099 57.064C509.819 57.064 505.903 58.076 503.351 60.1C500.887 62.036 499.655 64.72 499.655 68.152C499.655 70.44 500.227 72.376 501.371 73.96C502.603 75.544 504.407 76.864 506.783 77.92C509.159 78.976 512.195 79.9 515.891 80.692L518.927 81.352C525.527 82.76 531.247 84.564 536.087 86.764C541.015 88.964 544.843 91.868 547.571 95.476C550.299 99.084 551.663 103.704 551.663 109.336C551.663 114.968 550.211 119.94 547.307 124.252C544.491 128.476 540.443 131.82 535.163 134.284C529.971 136.66 523.811 137.848 516.683 137.848Z" fill="white"/>
<path d="M564.657 136V43.6H624.057V59.44H582.081V81.484H620.361V97.324H582.081V120.16H624.849V136H564.657Z" fill="#00C2A8"/>
</svg>
