<svg width="504" height="441" viewBox="0 0 504 441" fill="none" xmlns="http://www.w3.org/2000/svg">
<g opacity="0.49" clip-path="url(#clip0_38_968)">
<path opacity="0.4" d="M-47.687 165.179L51.4363 19.4424" stroke="#5C6470" stroke-width="1.5"/>
<path opacity="0.4" d="M-47.687 165.179L120.742 164.713" stroke="#5C6470" stroke-width="1.5"/>
<path opacity="0.4" d="M-47.687 165.179L13.8565 272.191" stroke="#5C6470" stroke-width="1.5"/>
<path opacity="0.4" d="M51.4363 19.4424L219.695 -42.2707" stroke="#5C6470" stroke-width="1.5"/>
<path opacity="0.4" d="M219.695 -42.2706L120.742 164.713" stroke="#5C6470" stroke-width="1.5"/>
<path opacity="0.4" d="M120.742 164.713L288.958 87.6878" stroke="#5C6470" stroke-width="1.5"/>
<path opacity="0.4" d="M120.742 164.713L136.435 302.476" stroke="#5C6470" stroke-width="1.5"/>
<path opacity="0.4" d="M288.958 87.688L403.648 33.7791" stroke="#5C6470" stroke-width="1.5"/>
<path opacity="0.4" d="M288.958 87.688L319.116 -80.8255" stroke="#5C6470" stroke-width="1.5"/>
<path opacity="0.4" d="M136.435 302.476L296.89 187.193" stroke="#5C6470" stroke-width="1.5"/>
<path opacity="0.4" d="M403.648 33.779L296.89 187.193" stroke="#5C6470" stroke-width="1.5"/>
<path opacity="0.4" d="M13.8565 272.191L136.435 302.476" stroke="#5C6470" stroke-width="1.5"/>
<path d="M57.5779 25.5501C60.9512 22.1582 60.936 16.674 57.544 13.3008C54.1521 9.92757 48.6679 9.94275 45.2947 13.3347C41.9215 16.7266 41.9367 22.2108 45.3286 25.584C48.7205 28.9572 54.2047 28.9421 57.5779 25.5501Z" fill="#00C2A8"/>
<path d="M128.419 172.347C132.635 168.107 132.616 161.252 128.376 157.036C124.136 152.819 117.281 152.838 113.065 157.078C108.848 161.318 108.867 168.173 113.107 172.39C117.347 176.606 124.202 176.587 128.419 172.347Z" fill="#00C2A8"/>
<path d="M295.1 93.7957C298.473 90.4038 298.458 84.9196 295.066 81.5464C291.674 78.1732 286.19 78.1884 282.817 81.5803C279.444 84.9722 279.459 90.4564 282.851 93.8296C286.243 97.2029 291.727 97.1877 295.1 93.7957Z" fill="#2D6CDF"/>
<path d="M143.344 309.347C147.139 305.531 147.122 299.361 143.306 295.566C139.49 291.772 133.32 291.789 129.526 295.605C125.731 299.42 125.748 305.59 129.564 309.385C133.38 313.18 139.549 313.163 143.344 309.347Z" fill="#00C2A8"/>
<path d="M409.789 39.8868C413.163 36.4949 413.148 31.0106 409.756 27.6374C406.364 24.2642 400.879 24.2794 397.506 27.6714C394.133 31.0633 394.148 36.5475 397.54 39.9207C400.932 43.2939 406.416 43.2787 409.789 39.8868Z" fill="#00C2A8"/>
<path d="M19.2305 277.536C22.182 274.568 22.1688 269.769 19.2008 266.817C16.2329 263.866 11.4342 263.879 8.48263 266.847C5.53107 269.815 5.54436 274.614 8.5123 277.565C11.4802 280.517 16.2789 280.503 19.2305 277.536Z" fill="#00C2A8"/>
<path d="M303.799 194.064C307.594 190.248 307.577 184.078 303.761 180.283C299.945 176.489 293.775 176.506 289.981 180.322C286.186 184.138 286.203 190.307 290.019 194.102C293.835 197.897 300.004 197.88 303.799 194.064Z" fill="#2D6CDF"/>
</g>
<defs>
<clipPath id="clip0_38_968">
<rect width="584.661" height="389.774" fill="white" transform="translate(-185.492 165.561) rotate(-45.1586)"/>
</clipPath>
</defs>
</svg>
